# xmcd CD database file
#
# Track frame offsets:
#	150
#	24525
#	39975
#	59202
#	74264
#	88744
#	103095
#	117885
#	130899
#	150791
#	164751
#
# Disc length: 2559 seconds
#
# Revision: 0
# Processed by: cddbd v1.5.2PL0 Copyright (c) Steve Scherf et al.
# Submitted via: CDex 1.70beta2
#
DISCID=9309fd0b
DTITLE=Lizzy Parks - Raise The Roof
DYEAR=2008
DGENRE=Jazz
TTITLE0=Raise The Roof
TTITLE1=Take Care
TTITLE2=Time
TTITLE3=Soul Bird
TTITLE4=Forever And A Day
TTITLE5=Spring Changes
TTITLE6=Seveb Day Fool
TTITLE7=All That
TTITLE8=Ode To St Cecile
TTITLE9=Leaving Home
TTITLE10=Prayer
EXTD=YEAR: 2008
EXTT0=
EXTT1=
EXTT2=
EXTT3=
EXTT4=
EXTT5=
EXTT6=
EXTT7=
EXTT8=
EXTT9=
EXTT10=
PLAYORDER=
